<?xml version="1.0" encoding="UTF-8"?>
<!DOCTYPE svg PUBLIC "-//W3C//DTD SVG 1.1//EN" "http://www.w3.org/Graphics/SVG/1.1/DTD/svg11.dtd">
<svg version="1.1" xmlns="http://www.w3.org/2000/svg" xmlns:xlink="http://www.w3.org/1999/xlink" x="0" y="0" width="612" height="792" viewBox="0, 0, 612, 792">
  <g id="Layer_1">
    <path d="M222.296,264.264 L216.5,259.207 L227,259.207 L226.514,264.264 L222.296,264.264 z" fill="#C8C8C8"/>
    <g>
      <path d="M396,229.64 L401.799,235.764 L401.799,264.529 L390.385,264.529 L390.385,340.962 C390.385,359.087 388.052,366.551 383.385,374.962 C366.826,404.808 335.385,432.962 311.385,447.962 L306.5,446.015 L375.511,365.803 L385.5,259.14 L396,258.707 z" fill="#C8C8C8"/>
      <path d="M396,229.64 L401.799,235.764 L401.799,264.529 L390.385,264.529 L390.385,340.962 C390.385,359.087 388.052,366.551 383.385,374.962 C366.826,404.808 335.385,432.962 311.385,447.962 L306.5,446.015 L375.511,365.803 L385.5,259.14 L396,258.707 z" fill-opacity="0" stroke="#C8C8C8" stroke-width="1"/>
    </g>
    <g>
      <path d="M322.266,230.64 L328.065,236.764 L328.065,259.707 L322.266,259.707 z" fill="#C8C8C8"/>
      <path d="M322.266,230.64 L328.065,236.764 L328.065,259.707 L322.266,259.707 z" fill-opacity="0" stroke="#C8C8C8" stroke-width="1"/>
    </g>
    <g>
      <path d="M249.528,230.64 L255.327,236.764 L255.327,259.707 L249.528,259.707 z" fill="#C8C8C8"/>
      <path d="M249.528,230.64 L255.327,236.764 L255.327,259.707 L249.528,259.707 z" fill-opacity="0" stroke="#C8C8C8" stroke-width="1"/>
    </g>
    <path d="M248,297.161 C274.692,299.876 301.05,305.962 326.719,313.693 C339.28,317.476 352.341,321.445 364,327.573 L364,339.001 C364,349.46 363.851,355.043 358.861,364.104 C346,387.46 323.62,406.927 306,418.001 C288.38,406.927 266,387.46 253.139,364.104 C248.15,355.043 248,349.46 248,339.001 L248,297.161 z" fill="#F3F2F2"/>
    <path d="M364,282.19 L364,327.573 C345.26,318.672 325.138,312.862 305.071,307.774 C286.31,303.017 267.287,299.039 248,297.225 L248,282.19 L364,282.19 z" fill="#DCD9D9"/>
    <g>
      <path d="M248.5,229.64 L248.5,259.14 L291.204,259.14 L291.204,229.64 L321.364,229.64 L321.364,259.14 L364.5,259.14 L364.5,229.64 L396,229.64 L396,259.14 L385.5,259.14 L385.5,339.015 C385.5,357.14 383.167,364.604 378.5,373.015 C361.94,402.861 330.5,431.015 306.5,446.015 C282.5,431.015 251.06,402.861 234.5,373.015 C229.833,364.604 227.5,357.14 227.5,339.015 L227.5,259.14 L217,259.14 L217,229.64 L248.5,229.64 z M364.5,282.14 L248.5,282.14 L248.5,339.015 C248.5,349.473 248.65,355.056 253.639,364.118 C266.5,387.473 288.88,406.94 306.5,418.015 C324.12,406.94 346.5,387.473 359.361,364.118 C364.351,355.056 364.5,349.473 364.5,339.015 L364.5,282.14 z" fill="#001B7E"/>
      <path d="M248.5,229.64 L248.5,259.14 L291.204,259.14 L291.204,229.64 L321.364,229.64 L321.364,259.14 L364.5,259.14 L364.5,229.64 L396,229.64 L396,259.14 L385.5,259.14 L385.5,339.015 C385.5,357.14 383.167,364.604 378.5,373.015 C361.94,402.861 330.5,431.015 306.5,446.015 C282.5,431.015 251.06,402.861 234.5,373.015 C229.833,364.604 227.5,357.14 227.5,339.015 L227.5,259.14 L217,259.14 L217,229.64 L248.5,229.64 z M364.5,282.14 L248.5,282.14 L248.5,339.015 C248.5,349.473 248.65,355.056 253.639,364.118 C266.5,387.473 288.88,406.94 306.5,418.015 C324.12,406.94 346.5,387.473 359.361,364.118 C364.351,355.056 364.5,349.473 364.5,339.015 L364.5,282.14 z" fill-opacity="0" stroke="#001B7E" stroke-width="1"/>
    </g>
    <g>
      <path d="M301.75,335.12 C299.062,333.745 297.15,330.649 297.15,326.993 C297.15,321.829 301.336,317.643 306.5,317.643 C311.664,317.643 315.85,321.829 315.85,326.993 C315.85,330.427 313.999,333.428 311.24,335.054 L315.85,367.709 L297.15,367.709 z" fill="#000000"/>
      <path d="M301.75,335.12 C299.062,333.745 297.15,330.649 297.15,326.993 C297.15,321.829 301.336,317.643 306.5,317.643 C311.664,317.643 315.85,321.829 315.85,326.993 C315.85,330.427 313.999,333.428 311.24,335.054 L315.85,367.709 L297.15,367.709 z" fill-opacity="0" stroke="#000000" stroke-width="1"/>
    </g>
    <path d="M301.76,335.054 L301.75,335.12" fill-opacity="0" stroke="#000000" stroke-width="1"/>
    <text transform="matrix(1, 0, 0, 1, 306, 482.462)">
      <tspan x="-111.322" y="25.5" font-family="TrebuchetMS" font-size="72" fill="#001B7E">passGit</tspan>
    </text>
  </g>
</svg>
